<svg width="35" height="35" viewBox="0 0 35 35" fill="none" xmlns="http://www.w3.org/2000/svg">
<rect width="35" height="35" rx="3" fill="#EFEEF3"/>
<g clip-path="url(#clip0_13_17)">
<path d="M17.5 27.5C23.0228 27.5 27.5 23.0228 27.5 17.5C27.5 11.9772 23.0228 7.5 17.5 7.5C11.9772 7.5 7.5 11.9772 7.5 17.5C7.5 23.0228 11.9772 27.5 17.5 27.5Z" fill="#F7931A"/>
<path d="M21.9931 16.2625C22.1894 14.9525 21.1912 14.2481 19.8275 13.7781L20.27 12.0031L19.19 11.7344L18.7587 13.4625C18.475 13.3912 18.1837 13.325 17.8931 13.2587L18.3275 11.5194L17.2475 11.25L16.805 13.0244C16.57 12.9706 16.3387 12.9181 16.115 12.8619L16.1162 12.8562L14.6262 12.4844L14.3387 13.6381C14.3387 13.6381 15.1406 13.8219 15.1237 13.8331C15.5612 13.9425 15.64 14.2319 15.6269 14.4619L15.1231 16.4837C15.1531 16.4912 15.1919 16.5025 15.2356 16.5194L15.1212 16.4912L14.415 19.3237C14.3612 19.4562 14.2256 19.6556 13.9194 19.58C13.9306 19.5956 13.1344 19.3844 13.1344 19.3844L12.5981 20.6206L14.0044 20.9713C14.2656 21.0369 14.5219 21.1056 14.7737 21.17L14.3269 22.965L15.4062 23.2337L15.8487 21.4587C16.1437 21.5381 16.43 21.6119 16.71 21.6819L16.2687 23.4494L17.3487 23.7181L17.7956 21.9269C19.6381 22.2756 21.0231 22.135 21.6062 20.4688C22.0762 19.1275 21.5831 18.3531 20.6137 17.8488C21.32 17.6863 21.8512 17.2219 21.9931 16.2625ZM19.5244 19.7238C19.1912 21.0656 16.9319 20.34 16.1994 20.1581L16.7931 17.78C17.5256 17.9631 19.8737 18.325 19.5244 19.7238ZM19.8587 16.2431C19.5544 17.4638 17.6744 16.8431 17.065 16.6913L17.6025 14.535C18.2119 14.6869 20.1762 14.97 19.8587 16.2431Z" fill="white"/>
</g>
<defs>
<clipPath id="clip0_13_17">
<rect width="20" height="20" fill="white" transform="translate(7.5 7.5)"/>
</clipPath>
</defs>
</svg>
