<svg viewBox="0 0 34 23" fill="currentColor" xmlns="http://www.w3.org/2000/svg">
<path fill-rule="evenodd" clip-rule="evenodd" d="M6.15271 11.6347C6.05493 11.5502 6 11.4356 6 11.3161C6 11.1966 6.05493 11.082 6.15271 10.9975L9.10326 8.44813C9.15138 8.40508 9.20893 8.37075 9.27256 8.34713C9.3362 8.32352 9.40464 8.31108 9.47389 8.31056C9.54315 8.31004 9.61183 8.32145 9.67593 8.34411C9.74003 8.36676 9.79826 8.40023 9.84723 8.44254C9.89621 8.48485 9.93494 8.53517 9.96116 8.59055C9.98739 8.64594 10.0006 8.70528 9.99998 8.76512C9.99938 8.82495 9.98499 8.88409 9.95766 8.93907C9.93032 8.99405 9.89059 9.04378 9.84077 9.08535L7.25897 11.3161L9.84077 13.5468C9.93578 13.6318 9.98835 13.7456 9.98716 13.8638C9.98597 13.982 9.93112 14.095 9.83442 14.1786C9.73771 14.2621 9.60689 14.3095 9.47014 14.3105C9.33338 14.3116 9.20163 14.2661 9.10326 14.184L6.15271 11.6347Z" fill="#4A4A4A"/>
<path d="M15 6.31055H28M15 11.3105H28M15 16.3105H28" stroke="#4A4A4A" stroke-width="2" stroke-linecap="round" stroke-linejoin="round"/>
</svg>
